<?xml version="1.0" encoding="UTF-8" standalone="no"?>
<!DOCTYPE svg PUBLIC "-//W3C//DTD SVG 1.1//EN" "http://www.w3.org/Graphics/SVG/1.1/DTD/svg11.dtd">
<svg xmlns="http://www.w3.org/2000/svg" version="1.1" viewBox="0.00 0.00 1024.00 1024.00">
<g stroke-width="2.00" fill="none" stroke-linecap="butt">
<path stroke="#f7da84" vector-effect="non-scaling-stroke" d="
  M 226.27 368.35
  C 180.68 459.57 180.77 564.54 226.28 655.63"
/>
<path stroke="#97cfa6" vector-effect="non-scaling-stroke" d="
  M 226.28 655.63
  Q 227.07 657.50 228.16 659.57
  C 283.52 764.48 391.26 831.50 510.49 831.94
  C 589.21 832.24 665.19 808.38 723.67 754.48"
/>
<path stroke="#9ebef4" vector-effect="non-scaling-stroke" d="
  M 723.67 754.48
  C 774.06 707.68 804.52 645.24 814.77 577.50
  C 821.02 536.18 821.28 494.75 811.18 454.13
  Q 811.09 453.75 810.70 453.75
  L 512.50 453.75
  A 0.50 0.50 0.0 0 0 512.00 454.25
  L 512.00 572.25
  Q 512.00 572.75 512.50 572.75
  L 687.27 572.75
  Q 687.87 572.75 687.77 573.34
  C 681.19 614.65 656.21 651.96 622.56 676.06"
/>
<path stroke="#97cfa6" vector-effect="non-scaling-stroke" d="
  M 622.56 676.06
  Q 595.26 695.36 561.75 702.76
  C 528.26 710.15 492.30 710.38 459.58 700.72
  C 403.52 684.18 358.23 643.45 335.73 589.37
  Q 332.63 581.90 329.98 574.96"
/>
<path stroke="#f7da84" vector-effect="non-scaling-stroke" d="
  M 329.98 574.96
  Q 312.56 521.70 324.75 467.50
  Q 325.93 462.24 329.87 448.92"
/>
<path stroke="#efa29b" vector-effect="non-scaling-stroke" d="
  M 329.87 448.92
  C 343.99 409.66 367.62 376.10 400.80 352.29
  C 471.34 301.65 569.32 303.27 634.78 363.13
  Q 635.19 363.51 635.59 363.12
  L 725.64 275.62
  Q 725.99 275.27 725.63 274.94
  Q 647.61 202.85 542.18 193.34
  C 411.63 181.56 290.49 248.35 228.86 363.58
  Q 227.37 366.37 226.27 368.35"
/>
<path stroke="#f3882c" vector-effect="non-scaling-stroke" d="
  M 329.87 448.92
  L 226.27 368.35"
/>
<path stroke="#9bb637" vector-effect="non-scaling-stroke" d="
  M 329.98 574.96
  L 226.28 655.63"
/>
<path stroke="#429aa7" vector-effect="non-scaling-stroke" d="
  M 723.67 754.48
  L 622.56 676.06"
/>
</g>
<path fill="#f3f3f3" d="
  M 992.07 511.99
  A 480.08 480.08 0.0 0 1 511.99 992.07
  A 480.08 480.08 0.0 0 1 31.91 511.99
  A 480.08 480.08 0.0 0 1 511.99 31.91
  A 480.08 480.08 0.0 0 1 992.07 511.99
  Z
  M 226.27 368.35
  C 180.68 459.57 180.77 564.54 226.28 655.63
  Q 227.07 657.50 228.16 659.57
  C 283.52 764.48 391.26 831.50 510.49 831.94
  C 589.21 832.24 665.19 808.38 723.67 754.48
  C 774.06 707.68 804.52 645.24 814.77 577.50
  C 821.02 536.18 821.28 494.75 811.18 454.13
  Q 811.09 453.75 810.70 453.75
  L 512.50 453.75
  A 0.50 0.50 0.0 0 0 512.00 454.25
  L 512.00 572.25
  Q 512.00 572.75 512.50 572.75
  L 687.27 572.75
  Q 687.87 572.75 687.77 573.34
  C 681.19 614.65 656.21 651.96 622.56 676.06
  Q 595.26 695.36 561.75 702.76
  C 528.26 710.15 492.30 710.38 459.58 700.72
  C 403.52 684.18 358.23 643.45 335.73 589.37
  Q 332.63 581.90 329.98 574.96
  Q 312.56 521.70 324.75 467.50
  Q 325.93 462.24 329.87 448.92
  C 343.99 409.66 367.62 376.10 400.80 352.29
  C 471.34 301.65 569.32 303.27 634.78 363.13
  Q 635.19 363.51 635.59 363.12
  L 725.64 275.62
  Q 725.99 275.27 725.63 274.94
  Q 647.61 202.85 542.18 193.34
  C 411.63 181.56 290.49 248.35 228.86 363.58
  Q 227.37 366.37 226.27 368.35
  Z"
/>
<path fill="#eb5043" d="
  M 329.87 448.92
  L 226.27 368.35
  Q 227.37 366.37 228.86 363.58
  C 290.49 248.35 411.63 181.56 542.18 193.34
  Q 647.61 202.85 725.63 274.94
  Q 725.99 275.27 725.64 275.62
  L 635.59 363.12
  Q 635.19 363.51 634.78 363.13
  C 569.32 303.27 471.34 301.65 400.80 352.29
  C 367.62 376.10 343.99 409.66 329.87 448.92
  Z"
/>
<path fill="#fbc015" d="
  M 226.27 368.35
  L 329.87 448.92
  Q 325.93 462.24 324.75 467.50
  Q 312.56 521.70 329.98 574.96
  L 226.28 655.63
  C 180.77 564.54 180.68 459.57 226.27 368.35
  Z"
/>
<path fill="#4889f4" d="
  M 723.67 754.48
  L 622.56 676.06
  C 656.21 651.96 681.19 614.65 687.77 573.34
  Q 687.87 572.75 687.27 572.75
  L 512.50 572.75
  Q 512.00 572.75 512.00 572.25
  L 512.00 454.25
  A 0.50 0.50 0.0 0 1 512.50 453.75
  L 810.70 453.75
  Q 811.09 453.75 811.18 454.13
  C 821.28 494.75 821.02 536.18 814.77 577.50
  C 804.52 645.24 774.06 707.68 723.67 754.48
  Z"
/>
<path fill="#3bab59" d="
  M 329.98 574.96
  Q 332.63 581.90 335.73 589.37
  C 358.23 643.45 403.52 684.18 459.58 700.72
  C 492.30 710.38 528.26 710.15 561.75 702.76
  Q 595.26 695.36 622.56 676.06
  L 723.67 754.48
  C 665.19 808.38 589.21 832.24 510.49 831.94
  C 391.26 831.50 283.52 764.48 228.16 659.57
  Q 227.07 657.50 226.28 655.63
  L 329.98 574.96
  Z"
/>
</svg>
